# xmcd
#
# Track frame offsets:
#	150
#	11626
#	28880
#	41123
#	52435
#	65855
#	88449
#	101153
#	114708
#	127093
#
# Disc length: 1873 seconds
#
# Revision: 0
# Processed by: cddbd v1.5.1PL0 Copyright (c) Steve Scherf et al.
# Submitted via: dBpowerAMP V4.0
#
DISCID=a4074f0a
DTITLE=Ray Price - American Music Legends (Cracker Barrel)
DYEAR=1900
DGENRE=
TTITLE0=Crazy Arms
TTITLE1=For the Good Times
TTITLE2=Release Me
TTITLE3=Burning Memories
TTITLE4=City Lights
TTITLE5=Danny Boy
TTITLE6=Invitation to the Blues
TTITLE7=Heartaches By the Number
TTITLE8=Heart Over Mind
TTITLE9=A Way to Survive
EXTD=
EXTT0=
EXTT1=
EXTT2=
EXTT3=
EXTT4=
EXTT5=
EXTT6=
EXTT7=
EXTT8=
EXTT9=
PLAYORDER=
